# xmcd
#
# Track frame offsets: 
#        150
#        15170
#        36577
#        51405
#        69370
#        88837
#        112315
#        131980
#        146700
#        162182
#        184070
#        208340
#        230660
#        250467
#        266422
#        289260
#        311865
#
# Disc length: 4331 seconds
#
# Revision: 0
# Processed by: cddbd v1.4PL0 Copyright (c) Steve Scherf et al.
# Submitted via: ExactAudioCopy v0.90a11
#
DISCID=1310e911
DTITLE=De Dijk - Het Beste Van
DYEAR=1900
DGENRE=
TTITLE0=Bloedend Hart
TTITLE1=Binnen Zonder Kloppen
TTITLE2=Groot Hart
TTITLE3=Ik Kan Het Niet Alleen
TTITLE4=Mag Het Licht Uit
TTITLE5=Onderuit
TTITLE6=Nergens Goed Voor
TTITLE7=Wat Een Vrouw (Live)
TTITLE8=Lovesong 100.001
TTITLE9=Niemand In De Stad
TTITLE10=Ze Zeggen
TTITLE11=Hou Me Vast
TTITLE12=Laat Het Vanavond Gebeuren
TTITLE13=Als Ze Er Niet Is 
TTITLE14=Bij Deze Stand Van De Maan
TTITLE15=Wanhoop Niet
TTITLE16=Dansen Op De Vulkaan
EXTD=
EXTT0=
EXTT1=
EXTT2=
EXTT3=
EXTT4=
EXTT5=
EXTT6=
EXTT7=
EXTT8=
EXTT9=
EXTT10=
EXTT11=
EXTT12=
EXTT13=
EXTT14=
EXTT15=
EXTT16=
PLAYORDER=
